<?xml version="1.0" encoding="UTF-8"?><svg id="Lag_2" xmlns="http://www.w3.org/2000/svg" viewBox="0 0 503.04 503.04"><defs><style>.cls-1,.cls-2,.cls-3,.cls-4{fill:none;}.cls-2{stroke-width:5px;}.cls-2,.cls-3,.cls-4{stroke:#424242;stroke-linecap:round;stroke-linejoin:round;}.cls-3{stroke-width:10px;}.cls-4{stroke-width:7px;}</style></defs><g id="Layer_1"><path class="cls-2" d="m271.33,314.04l-22.97-60.34c-1.65-.05-3.3-.1-4.95-.17l22.84,60-66.07,25.16-43.73-114.85,9.84,4.94c.58.29,1.24.32,1.83.09.09-.03.18-.08.27-.12.65-.35,1.1-1,1.19-1.73l5.73-47.24,25.74-9.8c.08-1.66.16-3.31.23-4.97l-27.78,10.58-15.34-10.2c-.05-.04-.11-.07-.17-.1-.4-.22-.84-.32-1.27-.29-.15.01-.31.04-.46.08,0,0,0,0,0,0-.08.02-.15.05-.22.07l-68.15,25.95c-.07.03-.14.06-.21.09-.15.07-.29.16-.42.26-.33.26-.59.62-.74,1.04-.02.06-.04.13-.06.19l-4.67,17.82-37.27,14.19c-1.18.45-1.77,1.77-1.32,2.94l57.62,151.33c.45,1.18,1.77,1.77,2.94,1.32l166.25-63.3c1.18-.45,1.77-1.77,1.32-2.94Zm-113.62-143.48l13.07,8.69-5.34,44-28.2-14.15,20.47-38.54Zm-5.69,1l-18.96,35.7-37.9-14.05,56.86-21.65Zm-61.78,24.69l40.91,15.17-11.65,29.32-33.25-29.31,3.98-15.18Zm14.03,178.96l-55.99-147.07,34.95-13.31,35.7,31.47c.56.49,1.32.68,2.04.51.72-.17,1.31-.69,1.59-1.38l4.07-10.23,43.73,114.85-66.07,25.16Zm70.34-26.78l-45.5-119.5,6.23-15.68,15.08,7.57,45.5,119.5-21.31,8.11Z"/><path class="cls-2" d="m174.71,316.66c1.18-.45,1.77-1.77,1.32-2.94-.45-1.18-1.77-1.77-2.94-1.32-1.18.45-1.77,1.77-1.32,2.94.45,1.18,1.77,1.77,2.94,1.32Z"/><path class="cls-2" d="m158.48,274.04c1.18-.45,1.77-1.77,1.32-2.94-.45-1.18-1.77-1.77-2.94-1.32-1.18.45-1.77,1.77-1.32,2.94s1.77,1.77,2.94,1.32Z"/><path class="cls-2" d="m159.82,226.86c-.96.36-1.44,1.44-1.07,2.39.36.96,1.44,1.44,2.39,1.07.96-.36,1.44-1.44,1.07-2.39-.36-.96-1.44-1.44-2.39-1.07Z"/><path class="cls-4" d="m443.21,390.66l-20.36-178.74v-17.98c0-1.25-1.01-2.26-2.26-2.26h-89.33c-.05,1.5-.2,3-.41,4.53h1.43v13.58h-2.01c.04,1.12.08,2.26.09,3.42,0,.37,0,.74-.01,1.11h26.84v51.9l-20.02,129.01-56.72-6.3,14.77-129.67c6.6-2.07,12.23-4.99,16.84-8.7-2.31-.18-4.63-.38-6.94-.6-2.77,1.69-5.88,3.14-9.34,4.35l.59-5.16c-1.5-.13-3.01-.26-4.52-.37l-16.17,141.89c-.07.6.1,1.2.48,1.67.38.47.92.77,1.52.84l61.13,6.79c1.21.13,2.3-.71,2.49-1.9l18.14-116.9,18.14,116.9c.17,1.11,1.13,1.92,2.23,1.92.08,0,.17,0,.25-.01l61.13-6.79c.6-.07,1.14-.37,1.52-.84.37-.47.55-1.07.48-1.67Zm-86.02-180.88h-20.38v-13.58h20.38v13.58Zm65.93,44.51c-9.21-3.22-15.92-8.11-20.46-14.92-4.38-6.57-6.66-14.79-6.94-25.07h22.85l4.56,39.99Zm-27.44-58.1h22.64v13.58h-22.64v-13.58Zm-9.06,0h4.53v13.58h-4.53v-13.58Zm-24.91,0h20.38v13.58h-20.38v-13.58Zm0,18.11h6.79v29.43c0,4.21-2.89,7.76-6.79,8.77v-38.2Zm20.02,180.91l-20.02-129.01v-9.07c6.42-1.08,11.32-6.67,11.32-13.39v-29.43h18.14c.3,11.21,2.83,20.25,7.71,27.58,5.37,8.05,13.71,13.89,24.79,17.36l14.77,129.67-56.72,6.3Z"/><path class="cls-3" d="m331.34,136.3c-8.18-23.97-4.86-50.34,9.02-71.57"/><path class="cls-3" d="m206.23,136.3c8.18-23.97,4.86-50.34-9.02-71.57"/><path class="cls-3" d="m304.57,51.31c-23.42,5.97-48.15,5.97-71.57,0l-35.79,13.42-35.79,40.26,22.37,40.26,22.37-8.95v111.83h125.25v-111.83l22.37,8.95,22.37-40.26-35.79-40.26-35.79-13.42Z"/><path class="cls-3" d="m233,51.31c4.64,15.91,19.22,26.84,35.79,26.84s31.15-10.93,35.79-26.84"/><circle class="cls-1" cx="251.52" cy="251.52" r="251.52"/></g></svg>