<svg id="uuid-da3ad79f-85f8-496d-b3fd-62195d390086" xmlns="http://www.w3.org/2000/svg" viewBox="0 0 891.31 1616.05">
  <defs>
    <style>
      .uuid-33ee1d3a-bf0c-4ef7-99ff-84eb1e0ecbc9,
      .uuid-67ff94f4-f285-40c8-9985-cc6a95422c49,
      .uuid-f100b901-7128-4f8d-9e24-f35fac78d106 {
        fill: none;
      }

      .uuid-33ee1d3a-bf0c-4ef7-99ff-84eb1e0ecbc9,
      .uuid-67ff94f4-f285-40c8-9985-cc6a95422c49,
      .uuid-f100b901-7128-4f8d-9e24-f35fac78d106,
      .uuid-641d622b-ce5f-4873-a58a-b22174ae20da {
        stroke-miterlimit: 10;
      }

      .uuid-33ee1d3a-bf0c-4ef7-99ff-84eb1e0ecbc9,
      .uuid-f100b901-7128-4f8d-9e24-f35fac78d106 {
        stroke: #1d1d1b;
      }

      .uuid-33ee1d3a-bf0c-4ef7-99ff-84eb1e0ecbc9,
      .uuid-f100b901-7128-4f8d-9e24-f35fac78d106,
      .uuid-641d622b-ce5f-4873-a58a-b22174ae20da {
        stroke-width: 3px;
      }

      .uuid-46fca549-340e-45da-8057-f14ccd5b49ad {
        font-family: MyriadPro-Regular, 'Myriad Pro';
        font-size: 57.24px;
      }

      .uuid-07f60228-9428-4252-825e-808cfe06038b {
        fill: #1d1d1b;
      }

      .uuid-d2b4fc73-e33f-478d-a4a7-c76ca9b59335 {
        letter-spacing: 0em;
      }

      .uuid-67ff94f4-f285-40c8-9985-cc6a95422c49 {
        stroke-dasharray: 0 0 7 5;
        stroke-width: 5px;
      }

      .uuid-67ff94f4-f285-40c8-9985-cc6a95422c49,
      .uuid-641d622b-ce5f-4873-a58a-b22174ae20da {
        stroke: #000;
      }

      .uuid-f100b901-7128-4f8d-9e24-f35fac78d106,
      .uuid-4acb24c1-a53b-4cd8-8190-5dd918800073 {
        fill-rule: evenodd;
      }

      .uuid-eb5b3312-b30f-4b5b-b9f6-4539a46dd630 {
        letter-spacing: 0em;
      }

      .uuid-deec0a2b-107c-4a25-b9b8-c670a53c6a6a {
        letter-spacing: -.01em;
      }

      .uuid-291de72d-e5af-4492-903a-2934f6af3d95 {
        letter-spacing: 0em;
      }

      .uuid-4acb24c1-a53b-4cd8-8190-5dd918800073,
      .uuid-641d622b-ce5f-4873-a58a-b22174ae20da {
        fill: #f0f0f0;
      }

      .uuid-cd0fbe3a-6c30-4df9-8e44-9cb3d2056830 {
        letter-spacing: 0em;
      }

      .uuid-2dc18934-87c2-4129-8b14-c7e270a3bcd7 {
        letter-spacing: -.03em;
      }
    </style>
  </defs>
  <g id="uuid-619a39d0-2ef4-4cba-b21c-3889a0b4773d">
    <path class="uuid-641d622b-ce5f-4873-a58a-b22174ae20da" d="m756.83,378.79c-.42,224.6-15.11,449.84-15.11,673.38,0,5.75-32.36,8.73-8.3,21.08,10.21,5.11-.22,24.69-.22,34.49l-.64,464.32c-10.04,13.57-22.2,22.26-35.28,28.42-39.85,18.76-86.49,17.18-125.22-3.8-11.45-6.2-20.13-12.71-26.2-18.01l-12.78-718.73c-2.13-121.57,6.81-258.24-19.8-389.81h-1.49V128.42c62.17,0,156.69.22,229.5,6.39l6.18,58.55c1.91,43.21,8.09,108.15,9.36,185.43Z" />
    <path class="uuid-641d622b-ce5f-4873-a58a-b22174ae20da" d="m511.58,128.42l.21,341.7h-1.7c-26.4,131.57-17.67,268.24-19.59,389.81l-12.98,718.73c-5.98,5.29-14.59,11.78-25.99,17.98-38.71,21.03-85.37,22.59-125.24,3.86-13.11-6.16-25.33-14.85-35.48-28.44l-.43-464.32c0-9.8-10.43-29.38-.21-34.49,23.84-12.35-8.3-15.33-8.3-21.08,0-223.54-14.69-448.78-15.12-673.38,1.28-77.28,7.45-142.22,9.37-185.43l6.17-58.55c72.81-6.17,167.34-6.39,229.29-6.39Z" />
    <rect class="uuid-07f60228-9428-4252-825e-808cfe06038b" x="510.94" y="161.64" width="1.49" height="308.48" />
    <rect class="uuid-07f60228-9428-4252-825e-808cfe06038b" x="510.09" y="161.64" width="2.98" height="230.99" />
    <path class="uuid-07f60228-9428-4252-825e-808cfe06038b" d="m502,160.15v2.98h-18.95l-6.6-.21-6.81-.21-7.03-.21-7.24-.21-7.24-.21-7.24-.43-7.66-.43-7.45-.43-7.66-.43-7.66-.64-7.45-.64-7.66-.64-7.66-.64-7.66-.85-7.66-.85-7.45-1.06-7.24-.85-7.45-1.06-7.03-1.28-7.03-1.06-7.03-1.28-6.6-1.49-6.6-1.49-6.39-1.49-5.96-1.49-5.96-1.7-5.54-1.7-5.32-1.92-5.11-1.92,1.28-2.77,4.9,1.92,5.11,1.7,5.54,1.92,5.75,1.49,6.17,1.7,6.17,1.49,6.6,1.49,6.6,1.28,6.81,1.28,7.03,1.28,7.03,1.06,7.24,1.06,7.45,1.06,7.45.85,7.45.85,7.66.85,7.66.64,7.66.64,7.45.64,7.66.64,7.66.43,7.45.43,7.45.43,7.45.43,7.24.21,7.03.43,7.03.21h6.81l6.81.21h18.73Zm240.14-24.91l1.06,2.77-4.9,1.92-5.54,1.92-5.96,1.7-6.39,1.7-6.6,1.49-6.81,1.49-7.24,1.28-7.45,1.28-7.88,1.28-7.88,1.06-8.09,1.06-8.3.85-8.52,1.06-8.52.85-8.52.64-8.73.85-8.52.64-8.73.43-8.73.64-8.52.43-8.52.43-8.52.43-8.3.21-8.09.43-7.88.21-7.66.21-7.45.21-7.24.21h-7.03l-6.6.21h-12.13v-2.98h12.13l6.6-.21h6.81l7.24-.21,7.45-.21,7.88-.21,7.88-.21,8.09-.21,8.3-.43,8.3-.43,8.52-.43,8.73-.43,8.52-.43,8.73-.64,8.52-.64,8.73-.85,8.52-.64,8.52-.85,8.3-.85,8.3-1.06,8.09-1.06,7.88-1.06,7.66-1.28,7.45-1.28,7.24-1.28,6.81-1.49,6.6-1.49,6.17-1.49,5.75-1.7,5.54-1.92,4.9-1.92Z" />
    <path class="uuid-07f60228-9428-4252-825e-808cfe06038b" d="m500.93,213.8v1.49h-19.16l-6.81-.21-7.03-.21-7.24-.21-7.24-.21-7.45-.21-7.45-.43-7.66-.43-7.66-.42-7.88-.43-7.66-.64-7.88-.64-7.88-.64-7.66-.85-7.88-.85-7.66-.85-7.66-.85-7.45-1.06-7.45-1.06-7.45-1.28-7.03-1.28-7.03-1.28-7.03-1.28-6.6-1.49-6.39-1.49-6.17-1.7-5.96-1.7-5.75-1.7-5.32-1.92-5.11-2.13.43-1.28,5.11,1.92,5.32,1.92,5.75,1.7,5.96,1.7,6.17,1.7,6.39,1.49,6.6,1.49,6.81,1.28,7.03,1.49,7.03,1.06,7.45,1.28,7.45,1.06,7.45,1.06,7.66.85,7.66.85,7.66.85,7.88.85,7.88.64,7.66.64,7.88.64,7.66.43,7.66.43,7.66.43,7.45.43,7.45.21,7.45.21,7.03.21,7.03.21,6.81.21h19.16Zm10.86,0v1.49h-10.86v-1.49h10.86Z" />
    <polygon class="uuid-4acb24c1-a53b-4cd8-8190-5dd918800073" points="409.39 158.02 424.08 158.87 419.4 230.62 404.71 229.77 409.39 158.02" />
    <path class="uuid-07f60228-9428-4252-825e-808cfe06038b" d="m425.57,159.08l-1.49,1.28-14.69-.85v-2.98l14.9.85,1.28,1.7h0Zm-1.28-1.7l1.49.21-.21,1.49-1.28-1.7h0Zm-4.9,74.73l-1.49-1.7,4.68-71.53,2.98.21-4.68,71.53-1.49,1.49h0Zm1.49-1.49v1.49h-1.49l1.49-1.49h0Zm-17.67-1.06l1.49-1.28,14.9.85-.21,2.98-14.69-.85-1.49-1.7h0Zm1.49,1.7l-1.49-.21v-1.49l1.49,1.7h0Zm4.68-74.73l1.49,1.7-4.68,71.53-2.98-.21,4.68-71.53,1.49-1.49h0Zm-1.49,1.49l.21-1.49h1.28l-1.49,1.49Z" />
    <path class="uuid-07f60228-9428-4252-825e-808cfe06038b" d="m522.65,213.8h19.16l6.81-.21,7.03-.21,7.03-.21,7.24-.21,7.45-.21,7.66-.43,7.45-.43,7.88-.43,7.66-.43,7.66-.64,7.88-.64,7.88-.64,7.66-.85,7.88-.85,7.66-.85,7.66-.85,7.45-1.06,7.45-1.06,7.24-1.28,7.24-1.06,7.03-1.49,6.81-1.28,6.6-1.49,6.39-1.49,6.17-1.7,5.96-1.7,5.54-1.7,5.53-1.92,4.9-1.92.64,1.28-5.11,2.13-5.32,1.92-5.75,1.7-5.96,1.7-6.17,1.7-6.6,1.49-6.6,1.49-6.81,1.28-7.03,1.28-7.24,1.28-7.24,1.28-7.45,1.06-7.45,1.06-7.66.85-7.88.85-7.66.85-7.88.85-7.66.64-7.88.64-7.88.64-7.66.43-7.66.42-7.66.43-7.45.43-7.45.21-7.45.21-7.03.21-7.03.21-6.81.21h-19.16v-1.49h0Zm-10.86,0h10.86v1.49h-10.86v-1.49Z" />
    <polygon class="uuid-4acb24c1-a53b-4cd8-8190-5dd918800073" points="614.19 158.02 599.29 158.87 604.19 230.62 618.88 229.77 614.19 158.02" />
    <path class="uuid-07f60228-9428-4252-825e-808cfe06038b" d="m598.01,159.08l1.28-1.7,14.69-.85.21,2.98-14.69.85-1.49-1.28Zm0,0l-.21-1.49,1.49-.21-1.28,1.7h0Zm6.17,73.02l-1.49-1.49-4.68-71.53,2.77-.21,4.68,71.53-1.28,1.7Zm0,0h-1.49v-1.49l1.49,1.49h0Zm16.18-2.56l-1.49,1.7-14.69.85-.21-2.98,14.69-.85,1.7,1.28Zm0,0v1.49l-1.49.21,1.49-1.7h0Zm-6.39-73.02l1.7,1.49,4.68,71.53-2.98.21-4.68-71.53,1.28-1.7Zm0,0h1.49l.21,1.49-1.7-1.49Z" />
    <path class="uuid-07f60228-9428-4252-825e-808cfe06038b" d="m501.57,160.15v2.98h-18.74l-6.6-.21-7.03-.21-7.03-.21-7.03-.21-7.24-.21-7.45-.43-7.45-.43-7.66-.43-7.45-.43-7.66-.64-7.66-.64-7.66-.64-7.66-.64-7.66-.85-7.45-.85-7.45-1.06-7.45-.85-7.24-1.06-7.24-1.28-7.03-1.06-6.81-1.28-6.81-1.49-6.6-1.49-6.17-1.49-6.17-1.49-5.75-1.7-5.54-1.7-5.32-1.92-5.11-1.92,1.06-2.77,4.9,1.92,5.32,1.7,5.54,1.92,5.75,1.49,5.96,1.7,6.39,1.49,6.39,1.49,6.6,1.28,6.81,1.28,7.03,1.28,7.24,1.06,7.24,1.06,7.45,1.06,7.45.85,7.45.85,7.45.85,7.66.64,7.66.64,7.66.64,7.66.64,7.45.43,7.66.43,7.45.43,7.24.43,7.24.21,7.24.43,7.03.21h6.81l6.6.21h18.74Zm240.36-24.91l1.06,2.77-5.11,1.92-5.54,1.92-5.96,1.7-6.17,1.7-6.6,1.49-7.03,1.49-7.24,1.28-7.45,1.28-7.66,1.28-8.09,1.06-8.09,1.06-8.3.85-8.3,1.06-8.52.85-8.52.64-8.73.85-8.73.64-8.73.43-8.52.64-8.73.43-8.52.43-8.3.43-8.3.21-8.09.43-8.09.21-7.66.21-7.45.21-7.24.21h-6.81l-6.81.21h-12.13v-2.98h12.13l6.6-.21h7.03l7.24-.21,7.45-.21,7.66-.21,7.88-.21,8.09-.21,8.3-.43,8.52-.43,8.52-.43,8.52-.43,8.52-.43,8.73-.64,8.73-.64,8.52-.85,8.73-.64,8.3-.85,8.52-.85,8.3-1.06,8.09-1.06,7.88-1.06,7.66-1.28,7.45-1.28,7.03-1.28,7.03-1.49,6.39-1.49,6.39-1.49,5.75-1.7,5.32-1.92,5.11-1.92Z" />
    <circle class="uuid-07f60228-9428-4252-825e-808cfe06038b" cx="534.25" cy="188.36" r="8.81" />
    <path class="uuid-33ee1d3a-bf0c-4ef7-99ff-84eb1e0ecbc9" d="m511.79,391.28s37.26,2.54,37.26-52.73v-124.96" />
    <path class="uuid-f100b901-7128-4f8d-9e24-f35fac78d106" d="m266.75,337.21s88.71-3.39,90.43-131.8" />
    <path class="uuid-f100b901-7128-4f8d-9e24-f35fac78d106" d="m756.83,337.21s-80.67-3.39-82.24-131.8" />
    <text class="uuid-46fca549-340e-45da-8057-f14ccd5b49ad" transform="translate(445.53 47.91)">

      <tspan class="uuid-d2b4fc73-e33f-478d-a4a7-c76ca9b59335" x="46.53" y="0">{{ 'productpage.sizeinfo.waist' | t  }}</tspan>
    </text>
    <line class="uuid-67ff94f4-f285-40c8-9985-cc6a95422c49" x1="266.75" y1="89.43" x2="756.83" y2="89.43" />
    <line class="uuid-67ff94f4-f285-40c8-9985-cc6a95422c49" x1="756.83" y1="67.02" x2="756.83" y2="110.12" />
    <line class="uuid-67ff94f4-f285-40c8-9985-cc6a95422c49" x1="266.75" y1="67.02" x2="266.75" y2="110.12" />
    <line class="uuid-67ff94f4-f285-40c8-9985-cc6a95422c49" x1="210.51" y1="1613.55" x2="210.51" y2="133.54" />
    <line class="uuid-67ff94f4-f285-40c8-9985-cc6a95422c49" x1="188.1" y1="133.54" x2="231.2" y2="133.54" />
    <line class="uuid-67ff94f4-f285-40c8-9985-cc6a95422c49" x1="188.1" y1="1613.55" x2="231.2" y2="1613.55" />
    <text class="uuid-46fca549-340e-45da-8057-f14ccd5b49ad" transform="translate(784.79 351.37)">
      <tspan class="uuid-d2b4fc73-e33f-478d-a4a7-c76ca9b59335" x="37.89" y="0">{{ 'productpage.sizeinfo.hips' | t  }}</tspan>
    </text>
    <line class="uuid-67ff94f4-f285-40c8-9985-cc6a95422c49" x1="259" y1="330.68" x2="764.96" y2="330.68" />
    <line class="uuid-67ff94f4-f285-40c8-9985-cc6a95422c49" x1="764.96" y1="308.27" x2="764.96" y2="351.37" />
    <line class="uuid-67ff94f4-f285-40c8-9985-cc6a95422c49" x1="259" y1="308.27" x2="259" y2="351.37" />
    <text class="uuid-46fca549-340e-45da-8057-f14ccd5b49ad" transform="translate(0 858.61)">
      <tspan class="uuid-cd0fbe3a-6c30-4df9-8e44-9cb3d2056830" x="26.21" y="0">{{ 'productpage.sizeinfo.length' | t  }}</tspan>
      <tspan x="150.18" y="0">t</tspan>
    </text>
  </g>
</svg>